<svg xmlns="http://www.w3.org/2000/svg" id="Capa_2" data-name="Capa 2" viewBox="0 0 102.9 136"><defs><style>.cls-1{fill:#75bebe;stroke:#243b40;stroke-miterlimit:10;stroke-width:6px}</style></defs><g id="Capa_1-2" data-name="Capa 1"><path d="M99.9 24.88v102.7c0 3-2.43 5.43-5.43 5.43H8.43c-3 0-5.43-2.43-5.43-5.43V8.43C3 5.43 5.43 3 8.43 3h69.51c1.43 0 2.81.57 3.83 1.58l16.54 16.45c1.02 1.02 1.6 2.4 1.6 3.85Z" class="cls-1"/><path d="M77.01 4.07v16.28c0 3 2.43 5.43 5.43 5.43h16.28M11.42 42.75h63.33M11.42 65.59h63.33M11.42 88.43h63.33M11.88 111.27H75.2" class="cls-1"/></g></svg>