<?xml version="1.0" encoding="UTF-8"?>
<svg id="Capa_2" data-name="Capa 2" xmlns="http://www.w3.org/2000/svg" viewBox="0 0 42.36 45.77">
  <defs>
    <style>
      .cls-1 {
        fill: none;
        stroke: #243b40;
        stroke-miterlimit: 10;
        stroke-width: 3px;
      }
    </style>
  </defs>
  <g id="Capa_1-2" data-name="Capa 1">
    <g>
      <line class="cls-1" x1="19.83" y1="28.91" x2="1.64" y2="41.43"/>
      <line class="cls-1" x1="40.86" y1="41.43" x2="24.41" y2="28.91"/>
      <line class="cls-1" x1="1.75" y1="16.66" x2="19.97" y2="28.5"/>
      <line class="cls-1" x1="27.78" y1="26.16" x2="40.91" y2="16.39"/>
      <g>
        <path class="cls-1" d="M1.5,16.69l.14,27.58h39.22v-27.85l-5.83-4.4-.09,8.6-10.72,8.28c-1.01.78-2.4.81-3.44.09l-11.89-8.25v-9.76l-7.39,5.73Z"/>
        <polyline class="cls-1" points="35.03 12.02 35.03 11.45 35.03 1.5 8.89 1.5 8.89 10.4 8.89 10.97"/>
        <path class="cls-1" d="M12.32,12.95h19.89H12.32ZM12.32,7.53h19.89H12.32Z"/>
      </g>
      <line class="cls-1" x1="12.44" y1="19.12" x2="32.33" y2="19.12"/>
    </g>
  </g>
</svg>