<svg xmlns="http://www.w3.org/2000/svg" data-name="Capa 2" viewBox="0 0 159.51 126"><g data-name="Capa 1"><rect width="153.51" height="120" x="3" y="3" rx="5.92" ry="5.92" style="stroke-width:6px;stroke:#243b40;stroke-miterlimit:10;fill:#ffd798"/><path d="M13.27 13.81h132.97v98.38H13.27z" style="fill:#75bebe;stroke-width:6px;stroke:#243b40;stroke-miterlimit:10"/><circle cx="62.75" cy="63.75" r="19.67" style="fill:#ff8e78;stroke-width:6px;stroke:#243b40;stroke-miterlimit:10"/><path d="m22.19 93.27 38.4-28.44 28.63 18.71 19.6-29.49 29.04 38.14" style="fill:#ffba6b;stroke-width:6px;stroke:#243b40;stroke-miterlimit:10"/><path d="M115 21.87c9.7 2.08 17.61 8.41 21.41 17.62 2.08 5.04 3.37 11.24 2 16.63-1.25 4.92-8.09 12.34-13.69 8.28-2.69-1.95-1.84-6.89-3.05-9.81-1.35-3.26-3.65-5.95-6.45-8.07-6.03-4.58-13.95-6.43-21.31-7.39-.97-.13-1.92-.41-2.73-.96-3.97-2.68-2.26-8.13.01-11.12.63-.84 1.33-1.58 2.07-2.24 5.19-4.62 14.31-4.53 21.74-2.94Z" style="fill:#ffba6b;stroke-width:4px;stroke:#243b40;stroke-miterlimit:10"/></g></svg>