<?xml version="1.0" encoding="UTF-8"?>
<svg id="Capa_2" data-name="Capa 2" xmlns="http://www.w3.org/2000/svg" viewBox="0 0 134.37 146">
  <defs>
    <style>
      .cls-1 {
        fill: #75bebe;
      }

      .cls-1, .cls-2, .cls-3 {
        stroke-width: 0px;
      }

      .cls-2 {
        fill: #243b40;
      }

      .cls-3 {
        fill: #ff8e78;
      }
    </style>
  </defs>
  <g id="Capa_1-2" data-name="Capa 1">
    <g>
      <g>
        <path class="cls-3" d="M122.07,143H12.3c-5.14,0-9.3-4.16-9.3-9.3V54.62c0-.69.13-1.36.36-1.98.37-.97,1.01-1.84,1.86-2.48L63.91,5.99c1.99-1.5,4.73-1.5,6.72,0l58.52,44.16c1.4,1.05,2.22,2.7,2.22,4.46v79.08c0,5.14-4.16,9.3-9.3,9.3Z"/>
        <path class="cls-2" d="M122.07,146H12.3c-6.78,0-12.3-5.52-12.3-12.3V54.62c0-1.04.19-2.07.56-3.04.57-1.52,1.56-2.83,2.86-3.81L62.11,3.6c3.04-2.29,7.29-2.29,10.33,0l58.52,44.16c2.14,1.61,3.41,4.17,3.41,6.85v79.08c0,6.78-5.52,12.3-12.3,12.3ZM67.27,7.88c-.55,0-1.1.17-1.55.52L7.03,52.56c-.39.29-.69.69-.86,1.15-.11.3-.17.6-.17.92v79.08c0,3.48,2.83,6.3,6.3,6.3h109.77c3.48,0,6.3-2.83,6.3-6.3V54.62c0-.81-.38-1.58-1.03-2.06L68.82,8.39c-.46-.35-1.01-.52-1.56-.52Z"/>
      </g>
      <g>
        <polyline class="cls-3" points="131.37 133.7 70.91 88.12 3 133.7"/>
        <polygon class="cls-2" points="4.67 136.19 1.33 131.21 71.01 84.44 133.18 131.3 129.57 136.09 70.81 91.8 4.67 136.19"/>
      </g>
      <g>
        <line class="cls-3" x1="3.36" y1="52.64" x2="63" y2="91.37"/>
        <rect class="cls-2" x="30.18" y="36.45" width="6" height="71.11" transform="translate(-45.28 60.62) rotate(-57)"/>
      </g>
      <g>
        <line class="cls-3" x1="75.56" y1="92.77" x2="132.3" y2="51.71"/>
        <rect class="cls-2" x="68.91" y="69.24" width="70.04" height="6" transform="translate(-22.62 74.64) rotate(-35.89)"/>
      </g>
      <g>
        <path class="cls-1" d="M111.99,65.59l.31-30V3H26.72v62.95l41.29,28.67c2,1.39,4.67,1.32,6.59-.17l37.38-28.87Z"/>
        <path class="cls-2" d="M71.2,98.63c-1.71,0-3.41-.51-4.9-1.54l-42.58-29.57V0h91.58v35.59l-.33,31.49-38.54,29.76c-1.55,1.2-3.39,1.8-5.24,1.8ZM29.72,64.38l40,27.78c.93.64,2.15.61,3.05-.08l36.23-27.98.29-28.55V6H29.72v58.38Z"/>
      </g>
      <rect class="cls-2" x="37.94" y="17.27" width="65.12" height="6"/>
      <rect class="cls-2" x="37.94" y="37.47" width="65.12" height="6"/>
      <rect class="cls-2" x="38.35" y="57.67" width="65.12" height="6"/>
    </g>
  </g>
</svg>