<svg xmlns="http://www.w3.org/2000/svg" id="Capa_2" data-name="Capa 2" viewBox="0 0 134.37 146"><defs><style>.cls-2,.cls-3{stroke-width:0}.cls-2{fill:#243b40}.cls-3{fill:#ff8e78}</style></defs><g id="Capa_1-2" data-name="Capa 1"><path d="M122.07 143H12.3c-5.14 0-9.3-4.16-9.3-9.3V54.62c0-.69.13-1.36.36-1.98.37-.97 1.01-1.84 1.86-2.48L63.91 5.99a5.58 5.58 0 0 1 6.72 0l58.52 44.16c1.4 1.05 2.22 2.7 2.22 4.46v79.08c0 5.14-4.16 9.3-9.3 9.3Z" class="cls-3"/><path d="M122.07 146H12.3C5.52 146 0 140.48 0 133.7V54.62c0-1.04.19-2.07.56-3.04a8.502 8.502 0 0 1 2.86-3.81L62.11 3.6c3.04-2.29 7.29-2.29 10.33 0l58.52 44.16a8.606 8.606 0 0 1 3.41 6.85v79.08c0 6.78-5.52 12.3-12.3 12.3ZM67.27 7.88c-.55 0-1.1.17-1.55.52L7.03 52.56c-.39.29-.69.69-.86 1.15-.11.3-.17.6-.17.92v79.08c0 3.48 2.83 6.3 6.3 6.3h109.77c3.48 0 6.3-2.83 6.3-6.3V54.62c0-.81-.38-1.58-1.03-2.06L68.82 8.39c-.46-.35-1.01-.52-1.56-.52Z" class="cls-2"/><path d="M131.37 133.7 70.91 88.12 3 133.7" class="cls-3"/><path d="m4.67 136.19-3.34-4.98 69.68-46.77 62.17 46.86-3.61 4.79L70.81 91.8 4.67 136.19z" class="cls-2"/><path d="M3.36 52.64 63 91.37" class="cls-3"/><path d="m1.727 55.161 3.268-5.032 59.637 38.73-3.267 5.031z" class="cls-2"/><path d="m75.56 92.77 56.74-41.06" class="cls-3"/><path d="m73.798 90.337 56.742-41.06 3.518 4.861-56.743 41.06z" class="cls-2"/><path d="m111.99 65.59.31-30V3H26.72v62.95l41.29 28.67c2 1.39 4.67 1.32 6.59-.17l37.38-28.87Z" style="stroke-width:0;fill:#75bebe"/><path d="M71.2 98.63c-1.71 0-3.41-.51-4.9-1.54L23.72 67.52V0h91.58v35.59l-.33 31.49-38.54 29.76a8.533 8.533 0 0 1-5.24 1.8ZM29.72 64.38l40 27.78c.93.64 2.15.61 3.05-.08L109 64.1l.29-28.55V6H29.72v58.38Z" class="cls-2"/><path d="M37.94 17.27h65.12v6H37.94zM37.94 37.47h65.12v6H37.94zM38.35 57.67h65.12v6H38.35z" class="cls-2"/></g></svg>