<svg xmlns="http://www.w3.org/2000/svg" id="Capa_2" data-name="Capa 2" viewBox="0 0 131.08 131.08"><defs><clipPath id="clippath-2"><rect width="119.08" height="119.08" x="6" y="6" rx="10" ry="10" style="stroke-width:0;fill:#75bebe"/></clipPath><clipPath id="clippath-3"><path d="M115.08 128.08H16c-7.17 0-13-5.83-13-13V16C3 8.83 8.83 3 16 3h99.08c7.17 0 13 5.83 13 13v99.08c0 7.17-5.83 13-13 13Z" style="stroke:#243b40;stroke-miterlimit:10;stroke-width:6px;clip-path:url(#clippath-2);fill:#75bebe"/></clipPath><style>.cls-2{fill:#75bebe}.cls-4,.cls-5,.cls-6{stroke-width:0}.cls-4{fill:#e1b1a9}.cls-5{fill:#243b40}.cls-6{fill:#ff8e78}</style></defs><g id="Capa_1-2" data-name="Capa 1"><rect width="119.08" height="119.08" x="6.35" y="6.34" class="cls-2" rx="10" ry="10"/><path d="M115.43 128.42H16.35c-7.17 0-13-5.83-13-13V16.34c0-7.17 5.83-13 13-13h99.08c7.17 0 13 5.83 13 13v99.08c0 7.17-5.83 13-13 13ZM16.35 9.34c-3.86 0-7 3.14-7 7v99.08c0 3.86 3.14 7 7 7h99.08c3.86 0 7-3.14 7-7V16.34c0-3.86-3.14-7-7-7H16.35Z" style="fill:#243b40"/><rect width="119.08" height="119.08" x="6" y="6" class="cls-2" rx="10" ry="10"/><path d="M115.08 128.08H16c-7.17 0-13-5.83-13-13V16C3 8.83 8.83 3 16 3h99.08c7.17 0 13 5.83 13 13v99.08c0 7.17-5.83 13-13 13Z" class="cls-2"/><g style="clip-path:url(#clippath-3)"><path d="m61.97-26.43 17.61 45.87L124.46-.54l-19.97 44.89 45.86 17.61-45.86 17.61 19.97 44.89-44.88-19.98-17.61 45.86-17.62-45.86-44.88 19.98 19.98-44.89-45.87-17.61 45.87-17.61L-.53-.54l44.88 19.98 17.62-45.87z" style="fill:#ffba6b;stroke-width:0"/><path d="M61.97 158.71 42.69 108.5l-49.13 21.87 21.87-49.13-50.21-19.28 50.2-19.28L-6.45-6.46l49.14 21.87L61.97-34.8l19.28 50.21 49.13-21.87-21.87 49.13 50.21 19.28-50.21 19.28 21.87 49.13-49.13-21.87-19.28 50.21Zm-15.95-58.26 15.94 41.52 15.95-41.52 40.64 18.08-18.08-40.64 41.52-15.95L100.47 46l18.08-40.62-40.64 18.08-15.95-41.52-15.94 41.52L5.39 5.38l18.08 40.64-41.52 15.94 41.52 15.95-18.08 40.63 40.64-18.09Z" class="cls-5"/><rect width="73.21" height="71.64" x="25.36" y="26.14" class="cls-6" rx="34.03" ry="34.03"/><path d="M64.54 100.78h-5.16c-20.42 0-37.03-16.61-37.03-37.03v-3.58c0-20.42 16.61-37.03 37.03-37.03h5.16c20.42 0 37.03 16.61 37.03 37.03v3.58c0 20.42-16.61 37.03-37.03 37.03Zm-5.15-71.64c-17.11 0-31.03 13.92-31.03 31.03v3.58c0 17.11 13.92 31.03 31.03 31.03h5.16c17.11 0 31.03-13.92 31.03-31.03v-3.58c0-17.11-13.92-31.03-31.03-31.03h-5.16Z" class="cls-5"/><circle cx="52.52" cy="59.2" r="7.87" class="cls-4"/><path d="M52.52 70.08c-6 0-10.87-4.88-10.87-10.87s4.88-10.87 10.87-10.87 10.87 4.88 10.87 10.87-4.88 10.87-10.87 10.87Zm0-15.75c-2.69 0-4.87 2.19-4.87 4.87s2.19 4.87 4.87 4.87 4.87-2.19 4.87-4.87-2.19-4.87-4.87-4.87Z" class="cls-5"/><circle cx="76.92" cy="59.2" r="7.87" class="cls-4"/><path d="M76.92 70.08c-6 0-10.87-4.88-10.87-10.87s4.88-10.87 10.87-10.87 10.87 4.88 10.87 10.87-4.88 10.87-10.87 10.87Zm0-15.75c-2.69 0-4.87 2.19-4.87 4.87s2.19 4.87 4.87 4.87 4.87-2.19 4.87-4.87-2.19-4.87-4.87-4.87Z" class="cls-5"/><path d="M73.78 70.22c0 4.35-3.52 7.87-7.87 7.87s-7.87-3.52-7.87-7.87" class="cls-6"/><path d="M65.9 81.1c-6 0-10.87-4.88-10.87-10.87h6c0 2.69 2.19 4.87 4.87 4.87s4.87-2.19 4.87-4.87h6c0 6-4.88 10.87-10.87 10.87Z" class="cls-5"/></g><path d="M115.08 128.08H16c-7.17 0-13-5.83-13-13V16C3 8.83 8.83 3 16 3h99.08c7.17 0 13 5.83 13 13v99.08c0 7.17-5.83 13-13 13Z" style="fill:none;stroke:#243b40;stroke-miterlimit:10;stroke-width:6px"/></g></svg>