<?xml version="1.0" encoding="UTF-8"?>
<svg id="Capa_2" data-name="Capa 2" xmlns="http://www.w3.org/2000/svg" xmlns:xlink="http://www.w3.org/1999/xlink" viewBox="0 0 131.08 131.08">
  <defs>
    <style>
      .cls-1, .cls-2, .cls-3 {
        fill: #75bebe;
      }

      .cls-1, .cls-4, .cls-5, .cls-6, .cls-7 {
        stroke-width: 0px;
      }

      .cls-4 {
        fill: #e1b1a9;
      }

      .cls-5, .cls-8 {
        fill: #243b40;
      }

      .cls-6 {
        fill: #ff8e78;
      }

      .cls-9 {
        clip-path: url(#clippath-3);
      }

      .cls-3 {
        clip-path: url(#clippath-2);
      }

      .cls-3, .cls-10 {
        stroke: #243b40;
        stroke-miterlimit: 10;
        stroke-width: 6px;
      }

      .cls-10 {
        fill: none;
      }

      .cls-7 {
        fill: #ffba6b;
      }
    </style>
    <clipPath id="clippath-2">
      <rect class="cls-1" x="6" y="6" width="119.08" height="119.08" rx="10" ry="10"/>
    </clipPath>
    <clipPath id="clippath-3">
      <path class="cls-3" d="M115.08,128.08H16c-7.17,0-13-5.83-13-13V16c0-7.17,5.83-13,13-13h99.08c7.17,0,13,5.83,13,13v99.08c0,7.17-5.83,13-13,13Z"/>
    </clipPath>
  </defs>
  <g id="Capa_1-2" data-name="Capa 1">
    <g>
      <g>
        <rect class="cls-2" x="6.35" y="6.34" width="119.08" height="119.08" rx="10" ry="10"/>
        <path class="cls-8" d="M115.43,128.42H16.35c-7.17,0-13-5.83-13-13V16.34c0-7.17,5.83-13,13-13h99.08c7.17,0,13,5.83,13,13v99.08c0,7.17-5.83,13-13,13ZM16.35,9.34c-3.86,0-7,3.14-7,7v99.08c0,3.86,3.14,7,7,7h99.08c3.86,0,7-3.14,7-7V16.34c0-3.86-3.14-7-7-7H16.35Z"/>
      </g>
      <g>
        <rect class="cls-2" x="6" y="6" width="119.08" height="119.08" rx="10" ry="10"/>
        <path class="cls-2" d="M115.08,128.08H16c-7.17,0-13-5.83-13-13V16c0-7.17,5.83-13,13-13h99.08c7.17,0,13,5.83,13,13v99.08c0,7.17-5.83,13-13,13Z"/>
        <g class="cls-9">
          <g>
            <g>
              <polygon class="cls-7" points="61.97 -26.43 79.58 19.44 124.46 -.54 104.49 44.35 150.35 61.96 104.49 79.57 124.46 124.46 79.58 104.48 61.97 150.34 44.35 104.48 -.53 124.46 19.45 79.57 -26.42 61.96 19.45 44.35 -.53 -.54 44.35 19.44 61.97 -26.43"/>
              <path class="cls-5" d="M61.97,158.71l-19.28-50.21-49.13,21.87,21.87-49.13-50.21-19.28L15.42,42.68-6.45-6.46,42.69,15.41l19.28-50.21,19.28,50.21,49.13-21.87-21.87,49.13,50.21,19.28-50.21,19.28,21.87,49.13-49.13-21.87-19.28,50.21ZM46.02,100.45l15.94,41.52,15.95-41.52,40.64,18.08-18.08-40.64,41.52-15.95-41.52-15.94L118.55,5.38l-40.64,18.08-15.95-41.52-15.94,41.52L5.39,5.38l18.08,40.64-41.52,15.94,41.52,15.95L5.39,118.54l40.64-18.09Z"/>
            </g>
            <g>
              <rect class="cls-6" x="25.36" y="26.14" width="73.21" height="71.64" rx="34.03" ry="34.03"/>
              <path class="cls-5" d="M64.54,100.78h-5.16c-20.42,0-37.03-16.61-37.03-37.03v-3.58c0-20.42,16.61-37.03,37.03-37.03h5.16c20.42,0,37.03,16.61,37.03,37.03v3.58c0,20.42-16.61,37.03-37.03,37.03ZM59.39,29.14c-17.11,0-31.03,13.92-31.03,31.03v3.58c0,17.11,13.92,31.03,31.03,31.03h5.16c17.11,0,31.03-13.92,31.03-31.03v-3.58c0-17.11-13.92-31.03-31.03-31.03h-5.16Z"/>
            </g>
            <g>
              <circle class="cls-4" cx="52.52" cy="59.2" r="7.87"/>
              <path class="cls-5" d="M52.52,70.08c-6,0-10.87-4.88-10.87-10.87s4.88-10.87,10.87-10.87,10.87,4.88,10.87,10.87-4.88,10.87-10.87,10.87ZM52.52,54.33c-2.69,0-4.87,2.19-4.87,4.87s2.19,4.87,4.87,4.87,4.87-2.19,4.87-4.87-2.19-4.87-4.87-4.87Z"/>
            </g>
            <g>
              <circle class="cls-4" cx="76.92" cy="59.2" r="7.87"/>
              <path class="cls-5" d="M76.92,70.08c-6,0-10.87-4.88-10.87-10.87s4.88-10.87,10.87-10.87,10.87,4.88,10.87,10.87-4.88,10.87-10.87,10.87ZM76.92,54.33c-2.69,0-4.87,2.19-4.87,4.87s2.19,4.87,4.87,4.87,4.87-2.19,4.87-4.87-2.19-4.87-4.87-4.87Z"/>
            </g>
            <g>
              <path class="cls-6" d="M73.78,70.22c0,4.35-3.52,7.87-7.87,7.87s-7.87-3.52-7.87-7.87"/>
              <path class="cls-5" d="M65.9,81.1c-6,0-10.87-4.88-10.87-10.87h6c0,2.69,2.19,4.87,4.87,4.87s4.87-2.19,4.87-4.87h6c0,6-4.88,10.87-10.87,10.87Z"/>
            </g>
          </g>
        </g>
        <path class="cls-10" d="M115.08,128.08H16c-7.17,0-13-5.83-13-13V16c0-7.17,5.83-13,13-13h99.08c7.17,0,13,5.83,13,13v99.08c0,7.17-5.83,13-13,13Z"/>
      </g>
    </g>
  </g>
</svg>