<svg xmlns="http://www.w3.org/2000/svg" data-name="Capa 2" viewBox="0 0 126 126"><g data-name="Capa 1"><rect width="120" height="120" x="3" y="3" rx="10" ry="10" style="fill:#75bebe;stroke:#243b40;stroke-miterlimit:10;stroke-width:6px"/><rect width="44.6" height="44.6" x="23.31" y="24.34" rx="21.18" ry="21.18" style="stroke:#243b40;stroke-miterlimit:10;stroke-width:6px;fill:#ff8e78"/><path d="M94.2 47.39c-3.36-.95-6.58-.95-9.57-.31a29.14 29.14 0 0 0-19.97-7.88c-8.54 0-16.23 3.66-21.58 9.5-.99-.14-2.01-.21-3.04-.21-12.66 0-22.85 10.55-22.28 23.33.52 11.53 10.07 20.91 21.6 21.26 2.73.08 5.35-.34 7.79-1.16a29.128 29.128 0 0 0 17.51 5.81c9.35 0 17.66-4.39 23.02-11.21.38.02.75.06 1.14.06 11.47 0 20.67-9.66 19.93-21.28-.53-8.39-6.46-15.62-14.55-17.91Z" style="fill:#ffba6b;stroke:#243b40;stroke-miterlimit:10;stroke-width:6px"/></g></svg>