<?xml version="1.0" encoding="UTF-8"?>
<svg id="Capa_2" data-name="Capa 2" xmlns="http://www.w3.org/2000/svg" viewBox="0 0 126 126">
  <defs>
    <style>
      .cls-1 {
        fill: #ff8e78;
      }

      .cls-1, .cls-2, .cls-3 {
        stroke: #243b40;
        stroke-miterlimit: 10;
        stroke-width: 6px;
      }

      .cls-2 {
        fill: #ffba6b;
      }

      .cls-3 {
        fill: #75bebe;
      }
    </style>
  </defs>
  <g id="Capa_1-2" data-name="Capa 1">
    <g>
      <rect class="cls-3" x="3" y="3" width="120" height="120" rx="10" ry="10"/>
      <rect class="cls-1" x="23.31" y="24.34" width="44.6" height="44.6" rx="21.18" ry="21.18"/>
      <path class="cls-2" d="M94.2,47.39c-3.36-.95-6.58-.95-9.57-.31-5.23-4.89-12.25-7.88-19.97-7.88-8.54,0-16.23,3.66-21.58,9.5-.99-.14-2.01-.21-3.04-.21-12.66,0-22.85,10.55-22.28,23.33.52,11.53,10.07,20.91,21.6,21.26,2.73.08,5.35-.34,7.79-1.16,4.88,3.65,10.94,5.81,17.51,5.81,9.35,0,17.66-4.39,23.02-11.21.38.02.75.06,1.14.06,11.47,0,20.67-9.66,19.93-21.28-.53-8.39-6.46-15.62-14.55-17.91Z"/>
    </g>
  </g>
</svg>